<svg id="svg" version="1.1" width="400" height="400" viewBox="0 0 400 400" xmlns="http://www.w3.org/2000/svg" xmlns:xlink="http://www.w3.org/1999/xlink" ><g id="svgg"><path id="path0" d="M197.199 102.141 C 191.996 107.598,186.581 115.337,182.472 123.190 L 180.514 126.933 178.521 125.595 C 172.036 121.242,162.991 116.816,155.556 114.359 C 150.900 112.821,150.917 112.822,150.581 114.079 C 148.685 121.172,147.568 132.057,147.891 140.283 L 148.071 144.872 141.403 144.765 C 132.419 144.622,125.616 145.236,118.333 146.848 C 116.576 147.236,115.109 147.583,115.072 147.617 C 114.897 147.781,116.595 153.024,117.954 156.516 C 124.742 173.957,135.804 188.280,148.790 196.442 C 163.960 205.977,183.208 211.537,196.464 210.214 C 200.070 209.854,201.046 209.854,204.520 210.210 C 216.751 211.466,232.644 207.327,248.194 198.835 C 262.019 191.286,272.484 179.679,280.258 163.274 C 282.772 157.970,286.468 148.029,286.069 147.647 C 285.849 147.436,279.373 146.110,276.667 145.722 C 270.945 144.901,266.713 144.659,259.907 144.764 L 253.079 144.869 253.242 140.004 C 253.497 132.442,252.635 123.065,251.033 115.972 L 250.406 113.194 249.530 113.262 C 244.926 113.617,229.895 120.619,221.649 126.249 L 218.715 128.252 216.598 124.057 C 212.428 115.793,205.869 106.424,200.770 101.446 L 199.264 99.976 197.199 102.141 M200.356 106.012 C 205.597 111.943,211.918 121.607,214.830 128.142 L 215.887 130.516 211.322 135.050 C 206.890 139.450,203.894 143.087,201.790 146.618 C 200.549 148.701,200.625 148.697,199.468 146.763 C 196.758 142.232,190.592 135.232,185.972 131.444 C 184.750 130.441,183.643 129.531,183.513 129.421 C 182.526 128.587,192.099 113.242,197.574 106.881 C 199.476 104.670,199.236 104.745,200.356 106.012 M158.333 119.029 C 166.209 122.119,179.161 129.201,179.162 130.417 C 179.162 130.569,178.658 132.123,178.041 133.869 C 176.160 139.196,174.991 144.517,174.300 150.903 C 174.205 151.781,174.096 152.500,174.058 152.500 C 174.021 152.500,172.561 151.859,170.815 151.075 C 165.380 148.638,155.695 145.833,152.710 145.833 C 151.345 145.833,151.281 145.484,151.271 137.962 C 151.266 134.042,151.417 129.630,151.614 127.917 C 152.026 124.341,153.053 117.737,153.246 117.419 C 153.420 117.134,153.856 117.272,158.333 119.029 M248.385 119.884 C 249.469 125.623,249.846 130.252,249.848 137.861 C 249.850 146.280,250.036 145.663,247.406 145.961 C 241.644 146.613,227.651 151.499,225.431 153.635 C 224.808 154.234,224.444 153.873,224.444 152.653 C 224.444 148.794,222.867 140.620,221.078 135.212 C 219.781 131.291,219.533 131.853,223.862 128.919 C 229.920 124.812,236.340 121.500,243.889 118.584 C 248.108 116.955,247.815 116.870,248.385 119.884 M185.248 135.081 C 189.860 139.113,194.119 144.167,197.200 149.269 C 198.916 152.110,198.924 151.607,197.101 155.242 C 196.271 156.898,194.943 159.802,194.150 161.696 C 193.357 163.589,192.671 165.182,192.624 165.234 C 192.578 165.287,191.063 164.172,189.256 162.757 C 187.450 161.343,183.995 158.874,181.577 157.273 L 177.183 154.361 177.357 152.250 C 177.880 145.913,179.486 138.787,181.642 133.241 C 182.032 132.239,181.948 132.196,185.248 135.081 M218.457 137.500 C 220.128 142.797,221.389 150.134,221.389 154.559 L 221.389 156.003 217.847 158.405 C 215.899 159.726,213.056 161.810,211.528 163.036 C 210.000 164.263,208.681 165.269,208.597 165.272 C 208.514 165.275,207.902 163.934,207.238 162.292 C 206.574 160.649,205.212 157.651,204.212 155.629 L 202.394 151.952 203.040 150.768 C 205.986 145.368,216.385 133.177,217.256 134.101 C 217.362 134.214,217.903 135.743,218.457 137.500 M148.593 148.582 C 148.718 148.784,148.902 149.651,149.003 150.510 C 149.547 155.142,151.457 162.120,153.523 167.028 C 154.218 168.678,154.741 170.062,154.685 170.103 C 154.629 170.144,153.177 170.328,151.458 170.512 C 145.989 171.097,140.095 172.533,134.664 174.605 L 132.086 175.589 131.527 174.889 C 128.995 171.713,123.664 161.703,121.268 155.623 C 119.066 150.035,119.074 150.125,120.735 149.770 C 122.526 149.387,127.655 148.642,130.572 148.341 C 134.349 147.950,148.319 148.138,148.593 148.582 M270.369 148.357 C 274.056 148.685,281.309 149.827,281.608 150.126 C 282.879 151.397,270.278 176.042,268.673 175.425 C 261.008 172.482,254.666 170.888,248.613 170.383 C 247.390 170.281,246.389 170.108,246.389 169.998 C 246.389 169.889,246.752 168.998,247.196 168.019 C 249.455 163.038,251.145 156.915,252.377 149.250 C 252.514 148.399,252.581 148.357,253.968 148.260 C 257.374 148.021,267.253 148.079,270.369 148.357 M157.163 149.903 C 162.399 151.047,169.358 153.594,172.871 155.653 L 174.086 156.365 174.282 160.613 C 174.390 162.949,174.645 166.299,174.850 168.056 C 175.294 171.880,175.722 171.455,171.928 170.963 C 170.180 170.736,166.451 170.469,163.642 170.370 L 158.534 170.190 157.328 167.643 C 155.232 163.220,152.940 155.538,152.078 150.052 L 151.890 148.853 152.959 149.036 C 153.547 149.136,155.439 149.527,157.163 149.903 M249.166 149.097 C 249.151 152.527,245.916 163.487,243.508 168.264 L 242.493 170.278 239.233 170.285 C 235.631 170.293,232.161 170.577,227.011 171.285 C 222.929 171.845,223.313 172.194,223.759 168.333 C 223.963 166.576,224.216 163.495,224.323 161.485 L 224.517 157.831 227.467 156.150 C 232.559 153.248,238.875 150.915,245.172 149.610 C 248.880 148.841,249.167 148.804,249.166 149.097 M202.417 159.236 C 203.334 161.260,204.497 164.006,205.003 165.338 L 205.922 167.759 203.257 170.433 L 200.592 173.106 197.914 170.407 L 195.236 167.707 195.862 166.006 C 196.206 165.071,197.160 162.806,197.982 160.972 C 198.804 159.139,199.670 157.170,199.907 156.597 C 200.522 155.111,200.575 155.167,202.417 159.236 M180.857 160.596 C 183.994 162.748,188.312 166.019,190.233 167.697 L 191.437 168.750 190.576 171.648 C 190.101 173.242,189.670 174.590,189.616 174.643 C 189.562 174.697,188.408 174.416,187.051 174.020 C 185.694 173.623,183.286 173.002,181.699 172.640 C 178.120 171.823,178.458 172.312,177.952 167.222 C 176.976 157.418,176.803 157.814,180.857 160.596 M221.077 162.847 C 220.543 171.400,220.232 172.574,218.416 172.901 C 217.836 173.005,216.063 173.462,214.477 173.915 C 212.890 174.369,211.549 174.697,211.497 174.645 C 211.420 174.568,210.740 172.353,209.810 169.145 C 209.646 168.580,220.158 160.086,221.114 160.011 C 221.191 160.005,221.175 161.281,221.077 162.847 M196.342 173.443 C 197.437 174.572,198.329 175.603,198.325 175.734 C 198.313 176.057,197.026 177.500,196.749 177.501 C 196.564 177.501,193.104 176.129,192.827 175.945 C 192.658 175.833,193.949 171.389,194.150 171.389 C 194.260 171.389,195.247 172.313,196.342 173.443 M207.779 173.617 C 208.128 174.843,208.365 175.881,208.304 175.925 C 206.898 176.944,204.161 177.592,203.706 177.014 C 202.663 175.688,202.668 175.673,204.752 173.479 C 207.180 170.923,207.010 170.915,207.779 173.617 M157.378 174.653 C 165.194 188.146,177.572 201.318,186.944 206.115 C 188.630 206.978,188.053 207.078,184.561 206.531 C 173.738 204.833,159.400 199.258,149.861 193.036 C 144.259 189.383,137.751 183.420,134.722 179.166 L 134.164 178.383 136.457 177.506 C 142.240 175.294,149.267 173.809,156.015 173.372 C 156.456 173.344,156.816 173.682,157.378 174.653 M166.111 173.748 C 169.266 173.930,175.337 174.703,175.611 174.958 C 175.718 175.058,176.135 176.697,176.537 178.600 C 178.361 187.241,181.358 194.777,185.431 200.961 C 186.053 201.906,185.908 201.844,183.611 200.178 C 176.541 195.049,169.056 186.787,162.770 177.175 C 160.145 173.162,160.172 173.293,162.014 173.462 C 162.816 173.536,164.660 173.664,166.111 173.748 M240.556 173.602 C 240.556 173.749,239.294 175.758,237.753 178.066 C 230.409 189.059,221.924 197.736,213.667 202.695 C 210.411 204.651,209.994 204.716,211.513 203.035 C 215.971 198.101,222.778 181.437,222.778 175.458 C 222.778 175.103,231.175 173.950,235.993 173.643 C 237.968 173.517,239.802 173.396,240.069 173.374 C 240.337 173.351,240.556 173.454,240.556 173.602 M252.176 174.207 C 258.336 175.202,267.180 177.964,266.736 178.753 C 266.167 179.766,261.131 185.196,258.934 187.167 C 248.806 196.247,231.392 204.203,216.550 206.531 C 212.730 207.130,212.527 207.007,215.050 205.622 C 224.168 200.618,235.414 188.604,243.195 175.556 C 244.699 173.034,244.808 173.017,252.176 174.207 M181.944 176.122 C 183.243 176.431,185.351 177.001,186.628 177.388 L 188.951 178.092 188.769 178.977 C 187.580 184.743,187.473 194.047,188.550 198.056 C 189.283 200.784,189.201 200.776,187.353 197.941 C 184.175 193.065,179.167 179.506,179.167 175.778 C 179.167 175.472,179.268 175.484,181.944 176.122 M219.347 176.597 C 219.272 176.865,218.814 178.703,218.329 180.683 C 217.315 184.817,215.680 189.546,214.291 192.361 L 213.332 194.306 213.457 192.083 C 213.609 189.410,213.212 183.797,212.643 180.575 C 212.150 177.775,211.827 178.157,215.627 177.048 C 219.297 175.978,219.527 175.950,219.347 176.597 M201.062 178.981 C 201.123 179.294,200.964 179.444,200.576 179.444 C 199.941 179.444,199.923 179.413,200.173 178.761 C 200.385 178.210,200.939 178.347,201.062 178.981 M194.375 180.194 C 194.849 180.390,194.841 180.419,193.828 182.188 C 193.337 183.047,192.457 184.688,191.874 185.833 L 190.814 187.917 190.978 185.972 C 191.129 184.175,191.469 181.779,191.836 179.936 L 191.986 179.177 193.007 179.614 C 193.568 179.854,194.184 180.115,194.375 180.194 M209.849 183.335 C 210.477 187.837,210.411 188.295,209.438 186.183 C 208.999 185.230,208.116 183.570,207.477 182.494 C 206.838 181.418,206.367 180.485,206.430 180.422 C 206.493 180.358,207.104 180.068,207.787 179.776 C 209.311 179.125,209.246 179.014,209.849 183.335 M201.891 184.503 C 209.403 189.671,210.762 198.409,204.859 203.578 C 201.568 206.460,198.546 206.200,195.462 202.769 C 190.539 197.293,191.826 190.355,198.779 184.897 C 200.724 183.370,200.319 183.421,201.891 184.503 " stroke="none" fill="#fafbfb" fill-rule="evenodd"></path><path id="path1" d="M211.510 134.514 L 210.694 135.417 211.597 134.601 C 212.094 134.152,212.500 133.746,212.500 133.698 C 212.500 133.483,212.271 133.672,211.510 134.514 M249.824 137.361 C 249.824 138.889,249.871 139.478,249.927 138.671 C 249.984 137.864,249.983 136.614,249.926 135.893 C 249.869 135.173,249.823 135.833,249.824 137.361 M151.197 137.361 C 151.199 138.278,151.251 138.619,151.312 138.120 C 151.374 137.621,151.373 136.871,151.310 136.453 C 151.246 136.036,151.196 136.444,151.197 137.361 M187.500 137.309 C 187.500 137.357,187.906 137.763,188.403 138.212 L 189.306 139.028 188.490 138.125 C 187.729 137.283,187.500 137.095,187.500 137.309 M221.194 154.444 C 221.194 155.285,221.246 155.628,221.310 155.208 C 221.374 154.788,221.374 154.101,221.310 153.681 C 221.246 153.260,221.194 153.604,221.194 154.444 M162.292 170.191 C 162.559 170.261,162.997 170.261,163.264 170.191 C 163.531 170.122,163.313 170.064,162.778 170.064 C 162.243 170.064,162.024 170.122,162.292 170.191 M195.556 172.917 C 196.385 173.757,197.127 174.444,197.203 174.444 C 197.280 174.444,196.663 173.757,195.833 172.917 C 195.003 172.076,194.262 171.389,194.186 171.389 C 194.109 171.389,194.726 172.076,195.556 172.917 M205.544 172.708 L 204.306 174.028 205.689 172.778 C 206.450 172.090,207.127 171.497,207.194 171.458 C 207.260 171.420,207.195 171.389,207.049 171.389 C 206.902 171.389,206.225 171.983,205.544 172.708 M260.962 185.069 L 259.583 186.528 261.042 185.149 C 261.844 184.391,262.500 183.735,262.500 183.691 C 262.500 183.484,262.243 183.714,260.962 185.069 M175.694 193.333 C 176.756 194.403,177.686 195.278,177.763 195.278 C 177.839 195.278,177.033 194.403,175.972 193.333 C 174.911 192.264,173.980 191.389,173.904 191.389 C 173.827 191.389,174.633 192.264,175.694 193.333 " stroke="none" fill="#7bdcdc" fill-rule="evenodd"></path><path id="path2" d="M249.792 133.750 C 249.795 134.361,249.852 134.578,249.919 134.233 C 249.985 133.887,249.983 133.387,249.913 133.122 C 249.844 132.856,249.789 133.139,249.792 133.750 M151.191 134.583 C 151.193 135.347,151.247 135.627,151.310 135.205 C 151.374 134.782,151.373 134.157,151.307 133.816 C 151.241 133.474,151.188 133.819,151.191 134.583 M190.417 135.556 C 191.013 136.167,191.564 136.667,191.641 136.667 C 191.717 136.667,191.291 136.167,190.694 135.556 C 190.098 134.944,189.547 134.444,189.471 134.444 C 189.394 134.444,189.820 134.944,190.417 135.556 M212.768 137.986 L 211.250 139.583 212.847 138.065 C 213.726 137.230,214.444 136.511,214.444 136.468 C 214.444 136.262,214.179 136.502,212.768 137.986 M151.187 140.000 C 151.187 140.688,151.241 140.969,151.307 140.625 C 151.373 140.281,151.373 139.719,151.307 139.375 C 151.241 139.031,151.187 139.313,151.187 140.000 M249.787 140.833 C 249.787 141.368,249.844 141.587,249.914 141.319 C 249.984 141.052,249.984 140.615,249.914 140.347 C 249.844 140.080,249.787 140.299,249.787 140.833 M177.292 153.472 C 177.295 154.083,177.352 154.301,177.419 153.955 C 177.485 153.610,177.483 153.110,177.413 152.844 C 177.344 152.578,177.289 152.861,177.292 153.472 M204.566 168.958 L 203.750 169.861 204.653 169.045 C 205.494 168.285,205.683 168.056,205.469 168.056 C 205.421 168.056,205.015 168.462,204.566 168.958 M159.375 170.201 C 159.872 170.263,160.684 170.263,161.181 170.201 C 161.677 170.139,161.271 170.089,160.278 170.089 C 159.285 170.089,158.878 170.139,159.375 170.201 M239.931 170.201 C 240.427 170.263,241.240 170.263,241.736 170.201 C 242.233 170.139,241.826 170.089,240.833 170.089 C 239.840 170.089,239.434 170.139,239.931 170.201 M155.278 173.441 C 155.278 173.500,155.646 173.602,156.096 173.668 C 156.547 173.734,156.852 173.686,156.774 173.561 C 156.637 173.338,155.278 173.229,155.278 173.441 M203.889 186.198 C 203.889 186.246,204.295 186.652,204.792 187.101 L 205.694 187.917 204.879 187.014 C 204.118 186.172,203.889 185.983,203.889 186.198 M213.398 187.778 C 213.398 188.313,213.455 188.531,213.525 188.264 C 213.595 187.997,213.595 187.559,213.525 187.292 C 213.455 187.024,213.398 187.243,213.398 187.778 M187.599 189.861 C 187.598 191.236,187.645 191.834,187.703 191.189 C 187.761 190.544,187.762 189.419,187.705 188.689 C 187.647 187.959,187.599 188.486,187.599 189.861 M192.570 195.694 C 192.573 196.306,192.630 196.523,192.696 196.177 C 192.763 195.832,192.760 195.332,192.691 195.066 C 192.621 194.801,192.567 195.083,192.570 195.694 " stroke="none" fill="#ace9e9" fill-rule="evenodd"></path><path id="path3" d="M135.489 148.252 C 135.835 148.318,136.335 148.316,136.600 148.246 C 136.866 148.177,136.583 148.123,135.972 148.126 C 135.361 148.129,135.144 148.186,135.489 148.252 M142.156 148.252 C 142.502 148.318,143.002 148.316,143.267 148.246 C 143.533 148.177,143.250 148.123,142.639 148.126 C 142.028 148.129,141.810 148.186,142.156 148.252 M257.989 148.252 C 258.335 148.318,258.835 148.316,259.100 148.246 C 259.366 148.177,259.083 148.123,258.472 148.126 C 257.861 148.129,257.644 148.186,257.989 148.252 M264.656 148.252 C 265.002 148.318,265.502 148.316,265.767 148.246 C 266.033 148.177,265.750 148.123,265.139 148.126 C 264.528 148.129,264.310 148.186,264.656 148.252 M173.972 158.056 C 173.972 158.896,174.024 159.240,174.088 158.819 C 174.151 158.399,174.151 157.712,174.088 157.292 C 174.024 156.872,173.972 157.215,173.972 158.056 M224.520 159.444 C 224.520 160.132,224.574 160.413,224.640 160.069 C 224.707 159.726,224.707 159.163,224.640 158.819 C 224.574 158.476,224.520 158.757,224.520 159.444 M225.278 193.194 C 224.603 193.882,224.113 194.444,224.190 194.444 C 224.266 194.444,224.881 193.882,225.556 193.194 C 226.230 192.507,226.720 191.944,226.643 191.944 C 226.567 191.944,225.953 192.507,225.278 193.194 " stroke="none" fill="#4ad0d0" fill-rule="evenodd"></path><path id="path4" d="M198.308 106.189 C 193.130 112.275,188.312 119.517,184.830 126.452 C 183.341 129.416,183.189 128.890,186.278 131.472 C 191.033 135.448,196.777 141.986,199.468 146.485 C 200.608 148.391,200.506 148.385,201.576 146.597 C 204.068 142.432,210.644 134.894,214.652 131.609 L 215.832 130.642 213.635 126.224 C 209.958 118.833,205.674 112.438,199.861 105.665 L 199.306 105.017 198.308 106.189 M152.960 119.931 C 151.567 127.780,151.045 136.517,151.568 143.233 L 151.744 145.494 153.164 145.677 C 158.192 146.324,166.275 148.739,171.215 151.069 L 174.167 152.461 174.168 151.022 C 174.173 147.317,175.834 139.600,177.870 133.833 L 179.116 130.305 176.155 128.385 C 169.491 124.063,155.922 117.500,153.649 117.500 C 153.507 117.500,153.197 118.594,152.960 119.931 M244.306 118.594 C 235.966 121.801,228.379 125.811,222.062 130.350 L 220.096 131.762 221.171 134.935 C 222.982 140.281,224.067 145.543,224.584 151.473 C 224.687 152.665,224.855 153.600,224.956 153.551 C 225.056 153.502,226.826 152.626,228.889 151.603 C 234.367 148.887,242.397 146.392,247.963 145.675 L 249.397 145.490 249.598 142.817 C 250.039 136.935,249.383 126.279,248.187 119.900 C 247.962 118.699,247.778 117.668,247.778 117.608 C 247.778 117.347,246.902 117.595,244.306 118.594 M181.145 135.208 C 179.326 140.300,177.999 146.545,177.612 151.827 L 177.427 154.349 180.033 155.993 C 183.017 157.876,188.268 161.662,190.649 163.648 C 192.692 165.352,192.453 165.458,193.718 162.288 C 194.311 160.800,195.593 157.908,196.565 155.861 C 198.694 151.378,198.683 152.079,196.684 148.802 C 193.663 143.846,190.012 139.548,185.158 135.231 C 181.823 132.265,182.195 132.267,181.145 135.208 M213.310 137.790 C 208.813 142.282,202.778 150.322,202.778 151.822 C 202.778 151.996,203.638 153.939,204.690 156.139 C 205.741 158.339,207.022 161.229,207.537 162.562 C 208.658 165.466,208.276 165.411,211.166 163.092 C 213.647 161.101,218.250 157.796,220.109 156.671 L 221.191 156.017 221.027 152.522 C 220.776 147.148,219.142 139.173,217.435 134.989 L 217.052 134.051 213.310 137.790 M135.417 148.222 C 130.103 148.531,121.836 149.566,119.941 150.159 C 118.645 150.565,125.168 164.842,130.193 172.600 C 132.235 175.752,131.613 175.622,136.389 173.891 C 141.781 171.937,145.847 171.040,153.517 170.113 L 154.674 169.973 153.693 167.850 C 151.670 163.472,149.410 155.388,148.731 150.102 L 148.548 148.676 146.982 148.514 C 144.825 148.290,137.445 148.104,135.417 148.222 M258.056 148.225 C 252.586 148.580,252.500 148.598,252.498 149.399 C 252.488 152.327,249.610 162.975,247.580 167.594 C 246.426 170.221,246.184 169.962,250.233 170.434 C 255.575 171.056,265.927 173.781,268.572 175.262 C 269.855 175.979,277.675 161.543,280.800 152.688 C 281.768 149.947,282.023 150.267,278.333 149.597 C 273.079 148.642,262.578 147.932,258.056 148.225 M152.357 150.326 C 153.246 155.935,155.341 163.032,157.447 167.569 L 158.575 170.000 160.329 170.001 C 162.563 170.002,168.816 170.460,172.163 170.868 C 175.316 171.252,175.032 171.714,174.574 166.941 C 174.361 164.728,174.107 161.443,174.010 159.641 L 173.833 156.366 171.152 155.026 C 166.052 152.477,158.448 150.015,153.514 149.315 L 152.166 149.124 152.357 150.326 M247.222 149.360 C 240.707 150.466,232.807 153.298,227.037 156.598 L 224.768 157.896 224.591 160.823 C 224.494 162.433,224.233 165.489,224.012 167.615 C 223.544 172.103,223.432 171.739,225.185 171.406 C 227.602 170.948,234.159 170.304,238.420 170.105 L 242.534 169.914 243.205 168.591 C 245.229 164.596,247.283 158.296,248.331 152.863 C 249.112 148.816,249.179 149.028,247.222 149.360 M199.048 158.933 C 197.507 162.252,195.556 167.085,195.556 167.581 C 195.556 167.772,196.681 169.048,198.056 170.417 L 200.556 172.905 203.056 170.417 C 204.431 169.048,205.556 167.767,205.556 167.571 C 205.556 166.619,200.969 156.111,200.554 156.111 C 200.446 156.111,199.768 157.381,199.048 158.933 M177.506 159.240 C 177.519 160.541,178.056 166.913,178.357 169.338 L 178.670 171.870 181.071 172.369 C 182.392 172.643,184.722 173.222,186.249 173.656 C 187.777 174.090,189.152 174.444,189.305 174.443 C 189.654 174.442,191.228 169.026,190.991 168.642 C 190.491 167.833,182.757 161.979,179.097 159.639 C 177.564 158.659,177.500 158.643,177.506 159.240 M218.232 162.252 C 215.118 164.455,210.003 168.542,209.994 168.833 C 209.974 169.480,211.577 174.442,211.806 174.442 C 211.958 174.441,213.396 174.076,215.000 173.631 C 216.604 173.185,218.367 172.738,218.918 172.637 L 219.920 172.453 220.240 169.768 C 220.597 166.774,221.126 160.478,221.028 160.380 C 220.994 160.346,219.735 161.188,218.232 162.252 M194.041 171.963 C 193.693 172.904,193.061 175.167,193.059 175.483 C 193.057 175.673,193.892 176.207,194.915 176.671 L 196.774 177.514 197.405 176.743 C 197.752 176.319,198.040 175.844,198.046 175.687 C 198.065 175.135,194.198 171.538,194.041 171.963 M204.920 173.552 C 202.835 175.653,202.828 175.670,203.706 176.743 L 204.337 177.514 206.196 176.671 C 208.245 175.742,208.244 175.744,207.614 173.592 C 206.991 171.467,206.989 171.467,204.920 173.552 M152.361 173.797 C 146.666 174.496,137.324 176.896,134.764 178.317 C 133.910 178.791,141.517 186.782,146.129 190.257 C 155.738 197.499,171.831 204.294,184.009 206.254 C 187.605 206.833,187.627 206.787,184.644 204.954 C 175.714 199.466,162.101 184.418,157.108 174.514 C 156.633 173.573,155.536 173.407,152.361 173.797 M160.833 173.747 C 160.833 175.002,170.052 187.177,174.532 191.840 C 178.585 196.058,186.100 202.418,185.128 200.807 C 184.999 200.592,184.457 199.731,183.924 198.893 C 180.888 194.119,178.019 186.400,176.264 178.285 C 175.896 176.586,175.450 175.106,175.272 174.996 C 174.460 174.494,160.833 173.316,160.833 173.747 M234.028 173.923 C 230.869 174.190,223.362 175.227,223.011 175.444 C 222.883 175.524,222.778 175.843,222.778 176.154 C 222.778 181.769,216.591 197.029,212.002 202.734 L 211.031 203.941 212.252 203.322 C 217.820 200.500,226.056 193.162,232.037 185.694 C 234.317 182.847,240.278 174.250,240.278 173.808 C 240.278 173.565,237.700 173.612,234.028 173.923 M242.663 176.713 C 238.488 183.556,234.093 189.225,228.624 194.824 C 223.748 199.816,220.424 202.509,214.722 206.088 L 213.750 206.698 215.278 206.521 C 227.975 205.049,247.032 196.957,256.620 188.967 C 260.386 185.828,266.998 178.850,266.591 178.443 C 265.277 177.129,252.672 174.059,247.222 173.726 L 244.583 173.565 242.663 176.713 M179.585 176.736 C 181.206 184.675,184.073 192.373,187.396 197.708 C 188.943 200.192,188.931 200.194,188.272 197.569 C 187.223 193.394,187.313 186.193,188.503 179.134 L 188.672 178.128 186.767 177.555 C 180.436 175.650,179.337 175.524,179.585 176.736 M215.455 177.222 C 212.090 178.208,212.364 177.812,212.917 180.881 C 213.174 182.306,213.453 185.718,213.537 188.463 L 213.689 193.455 214.356 191.944 C 216.084 188.029,217.810 182.539,219.007 177.153 C 219.224 176.177,219.007 176.181,215.455 177.222 M200.151 178.870 C 199.945 179.202,200.468 179.531,200.838 179.303 C 201.149 179.111,200.945 178.611,200.556 178.611 C 200.421 178.611,200.239 178.727,200.151 178.870 M192.118 179.666 C 191.959 179.923,191.109 185.541,191.116 186.286 C 191.119 186.572,191.721 185.681,192.454 184.306 C 193.187 182.931,193.961 181.530,194.174 181.193 C 194.388 180.856,194.498 180.517,194.420 180.438 C 194.067 180.085,192.238 179.471,192.118 179.666 M207.708 179.926 C 206.670 180.352,206.431 180.763,206.929 181.264 C 207.073 181.409,207.832 182.715,208.616 184.167 L 210.041 186.806 209.876 185.185 C 209.588 182.341,209.105 179.444,208.925 179.471 C 208.829 179.486,208.281 179.691,207.708 179.926 M199.139 184.770 C 192.210 189.763,190.681 197.175,195.479 202.511 C 198.661 206.049,202.093 206.226,205.235 203.013 C 210.289 197.843,209.306 190.672,202.825 185.435 C 200.578 183.620,200.703 183.643,199.139 184.770 M30.556 254.142 L 30.556 277.500 38.958 277.498 C 53.953 277.494,59.168 276.180,64.666 271.019 C 73.016 263.183,73.269 245.735,65.148 237.700 C 59.901 232.509,54.717 231.089,40.347 230.908 L 30.556 230.785 30.556 254.142 M192.166 253.681 C 187.169 266.247,183.000 276.747,182.900 277.014 C 182.732 277.463,183.033 277.500,186.894 277.500 L 191.070 277.500 192.716 273.264 C 193.621 270.934,194.661 268.247,195.027 267.292 L 195.692 265.556 205.137 265.558 L 214.583 265.561 216.915 271.530 L 219.246 277.500 223.542 277.500 C 226.866 277.500,227.806 277.422,227.700 277.153 C 226.953 275.262,212.117 238.277,210.819 235.069 L 209.104 230.833 205.177 230.834 L 201.250 230.834 192.166 253.681 M125.764 235.489 L 122.500 236.481 122.500 240.463 L 122.500 244.444 119.167 244.444 L 115.833 244.444 115.833 246.944 L 115.833 249.444 119.028 249.444 L 122.222 249.444 122.225 257.708 C 122.229 275.042,123.462 276.997,134.653 277.423 L 138.889 277.584 138.889 274.662 L 138.889 271.739 136.025 271.612 C 129.862 271.338,129.883 271.380,129.778 259.147 L 129.695 249.444 134.153 249.444 L 138.611 249.444 138.611 246.944 L 138.611 244.444 134.167 244.444 L 129.722 244.444 129.722 239.444 C 129.722 235.615,129.641 234.451,129.375 234.471 C 129.184 234.486,127.559 234.944,125.764 235.489 M47.639 237.505 C 57.937 238.651,62.859 243.946,62.871 253.889 C 62.884 265.637,56.896 270.833,43.345 270.833 L 38.333 270.833 38.333 254.028 L 38.333 237.222 41.736 237.225 C 43.608 237.226,46.264 237.352,47.639 237.505 M208.438 258.828 C 206.547 258.871,203.459 258.871,201.575 258.828 L 198.149 258.750 201.154 250.417 C 202.807 245.833,204.366 241.532,204.619 240.859 L 205.079 239.634 208.478 249.192 L 211.876 258.750 208.438 258.828 M89.722 244.046 C 74.733 247.292,72.970 271.814,87.338 277.190 C 92.678 279.188,98.533 278.192,101.765 274.737 L 103.056 273.357 103.056 275.429 L 103.056 277.500 106.806 277.500 L 110.556 277.500 110.556 260.972 L 110.556 244.444 106.944 244.444 L 103.333 244.444 103.333 246.288 L 103.333 248.132 101.984 246.869 C 98.879 243.965,94.623 242.985,89.722 244.046 M156.981 244.039 C 141.453 247.409,140.077 272.068,155.119 277.405 C 160.012 279.141,165.541 278.101,168.819 274.826 L 170.278 273.370 170.278 275.435 L 170.278 277.500 174.028 277.500 L 177.778 277.500 177.778 260.972 L 177.778 244.444 174.167 244.444 L 170.556 244.444 170.556 246.439 L 170.556 248.433 169.615 247.342 C 166.933 244.230,162.020 242.946,156.981 244.039 M242.892 244.006 C 228.396 247.307,226.997 270.858,240.985 276.092 C 246.018 277.975,252.018 277.148,255.006 274.160 L 256.180 272.986 256.059 275.590 C 255.659 284.203,246.766 287.338,236.909 282.343 C 236.175 281.971,235.472 281.667,235.348 281.667 C 235.163 281.667,234.032 287.004,234.029 287.889 C 234.025 288.937,241.504 290.547,246.400 290.552 C 253.902 290.559,258.502 288.258,261.172 283.162 C 263.119 279.445,263.110 279.526,263.338 263.194 C 263.451 255.097,263.639 247.566,263.756 246.458 L 263.969 244.444 260.040 244.444 L 256.111 244.444 256.111 246.139 L 256.111 247.834 254.582 246.436 C 251.884 243.970,247.266 243.010,242.892 244.006 M284.791 243.900 C 276.374 245.412,271.379 251.717,271.394 260.808 C 271.412 271.675,277.778 278.132,288.472 278.132 C 298.975 278.132,305.530 271.568,305.551 261.030 C 305.574 249.063,296.721 241.757,284.791 243.900 M327.055 243.987 C 325.513 244.494,323.599 245.849,322.394 247.286 L 321.400 248.472 321.394 246.458 L 321.389 244.444 317.458 244.444 L 313.528 244.444 313.708 246.987 C 313.808 248.386,313.889 255.823,313.889 263.515 L 313.889 277.500 317.621 277.500 L 321.353 277.500 321.453 266.875 C 321.569 254.676,321.601 254.484,323.906 252.179 C 325.949 250.136,328.344 249.629,332.153 250.434 L 333.056 250.625 333.056 247.412 C 333.056 245.440,332.941 244.129,332.760 244.017 C 332.142 243.635,328.188 243.614,327.055 243.987 M349.722 244.046 C 334.698 247.300,332.936 271.801,347.338 277.190 C 352.678 279.188,358.533 278.192,361.765 274.737 L 363.056 273.357 363.056 275.429 L 363.056 277.500 366.806 277.500 L 370.556 277.500 370.556 260.972 L 370.556 244.444 366.944 244.444 L 363.333 244.444 363.333 246.383 L 363.333 248.321 362.233 247.127 C 359.472 244.132,354.725 242.963,349.722 244.046 M98.500 250.638 C 104.891 253.877,105.393 266.945,99.274 270.825 C 91.127 275.992,82.261 266.709,85.515 256.420 C 87.339 250.654,93.297 248.002,98.500 250.638 M164.349 250.136 C 172.541 252.569,172.971 268.841,164.915 271.565 C 156.284 274.483,149.652 266.085,152.743 256.153 C 154.327 251.065,159.116 248.582,164.349 250.136 M251.547 250.489 C 255.336 252.439,257.280 258.208,256.081 263.945 C 254.042 273.703,241.582 274.047,239.440 264.404 C 237.330 254.909,244.383 246.804,251.547 250.489 M292.675 250.642 C 299.973 254.341,299.385 269.019,291.836 271.572 C 283.708 274.321,277.252 266.838,279.466 257.234 C 280.888 251.060,287.242 247.889,292.675 250.642 M358.500 250.638 C 366.520 254.702,364.779 270.482,356.151 271.938 C 348.078 273.299,342.774 265.471,345.512 256.234 C 347.153 250.698,353.349 248.028,358.500 250.638 " stroke="none" fill="#1cc4c4" fill-rule="evenodd"></path></g></svg>